<?xml version="1.0" standalone="no"?><!DOCTYPE svg PUBLIC "-//W3C//DTD SVG 1.1//EN" "http://www.w3.org/Graphics/SVG/1.1/DTD/svg11.dtd"><svg t="1731810272432" class="icon" viewBox="0 0 1024 1024" version="1.1" xmlns="http://www.w3.org/2000/svg" p-id="16189" xmlns:xlink="http://www.w3.org/1999/xlink" width="256" height="256"><path d="M869.967 734.938v-594.807c-2.317 0-4.79-0.464-7.107-0.464-168.091 0-438.149 0-606.24 0.464-11.123 0-22.556 1.545-33.217 4.79-42.641 12.978-69.214 50.675-69.214 96.097v523.738c1.236 34.453 13.441 71.531 41.56 93.315 19.776 15.449 42.332 22.556 67.669 22.556h605.931v-2.781h0.773v-54.537c-15.141-8.807-25.955-25.492-25.955-44.032s10.815-35.225 25.801-44.341zM807.395 830.26h-551.24c-28.118 0-50.983-22.866-50.983-50.983s22.866-50.984 50.983-50.984h551.394c-8.652 14.986-14.213 32.444-14.213 50.984-0.155 18.54 5.407 35.997 14.060 50.983z" fill="#E16D45" p-id="16190"></path><path d="M869.193 900.247h-605.622c-30.127 0-57.009-9.116-79.874-26.882-30.127-22.866-47.893-62.416-49.438-108.302v-524.048c0-54.537 32.753-99.65 83.427-115.099 12.205-3.553 25.646-5.871 38.779-5.871 106.756 0 251.518-0.464 365.844-0.464h240.395c2.009 0 4.016 0 6.335 0.464h2.009c10.66 0.464 18.54 9.116 18.54 19.776v594.807c0 7.107-3.553 13.441-9.888 16.994-9.888 5.872-15.758 15.758-15.758 26.882 0 11.123 5.871 21.321 15.758 26.882 5.871 3.553 9.888 9.888 9.888 16.994v54.537c0 2.317-0.464 4.789-1.236 6.798-1.39 9.888-9.734 16.53-19.158 16.53zM622.31 159.905c-114.326 0-259.089 0-365.844 0.464-9.425 0-19.004 1.545-27.654 4.016-33.989 10.352-55.31 40.015-55.31 77.093v522.967c1.236 33.217 13.904 62.416 33.989 77.866 16.222 12.205 34.453 18.54 55.773 18.54h586.928v-27.345c-15.758-13.441-25.646-33.217-25.646-54.229s9.425-40.787 25.646-54.229v-565.144h-227.881zM807.395 850.035h-551.24c-39.087 0-70.759-31.673-70.759-70.759s31.672-70.759 70.759-70.759h551.394c7.107 0 13.441 4.016 16.995 9.888s3.553 13.904 0 19.776c-7.571 12.978-11.433 27.346-11.433 41.096 0 14.213 4.016 28.118 11.433 41.096 3.553 5.872 3.553 13.904 0 19.776-3.708 6.335-10.042 9.888-17.149 9.888zM256.155 747.606c-17.459 0-31.208 14.213-31.208 31.208s14.213 31.363 31.208 31.363h521.576c-2.781-10.352-4.326-20.548-4.326-31.208s1.545-21.011 4.326-31.208h-521.576z" fill="#254C6A" p-id="16191"></path><path d="M461.016 532.085l58.863 96.869 58.863-96.869h117.88l-58.863-97.332 58.863-94.551h-117.416l-58.863-97.332-58.863 97.332h-117.88l58.863 94.551-58.863 97.332h117.416z" fill="#EAEABD" p-id="16192"></path><path d="M520.343 282.574l34.453 57.781h-67.978l33.526-57.781zM655.218 509.219h-64.117l32.444-50.674 31.672 50.674zM384.232 509.219l27.654-50.674 33.217 50.674h-60.871zM461.016 532.085l58.863 96.869 58.863-96.869h117.88l-58.863-97.332 58.863-94.551h-117.416l-58.863-97.332-58.863 97.332h-117.88l58.863 94.551-58.863 97.332h117.416zM658.77 363.221l-31.208 49.438-32.444-49.438h63.653zM520.343 590.638l-30.436-58.554h61.335l-30.899 58.554zM426.101 434.752l45.885-71.531h96.561l45.885 71.531-48.667 74.313h-92.542l-47.122-74.313zM382.224 363.221h63.343l-31.208 48.667-32.136-48.667z" fill="#224A66" p-id="16193"></path></svg>