<?xml version="1.0" standalone="no"?><!DOCTYPE svg PUBLIC "-//W3C//DTD SVG 1.1//EN" "http://www.w3.org/Graphics/SVG/1.1/DTD/svg11.dtd"><svg t="1731813805300" class="icon" viewBox="0 0 1024 1024" version="1.1" xmlns="http://www.w3.org/2000/svg" p-id="63187" xmlns:xlink="http://www.w3.org/1999/xlink" width="256" height="256"><path d="M0 0m153.6 0l716.8 0q153.6 0 153.6 153.6l0 716.8q0 153.6-153.6 153.6l-716.8 0q-153.6 0-153.6-153.6l0-716.8q0-153.6 153.6-153.6Z" fill="#E8E5F0" p-id="63188"></path><path d="M768 793.6a25.6 25.6 0 0 0-25.6-25.6h-512a25.6 25.6 0 1 0 0 51.2h512a25.6 25.6 0 0 0 25.6-25.6z m-281.6-51.2a331.264 331.264 0 0 0 212.3776-76.8H819.2c42.3424 0 76.8-34.4576 76.8-76.8v-51.2c0-42.3424-34.4576-76.8-76.8-76.8h-4.352c2.56-16.7424 4.352-33.7408 4.352-51.2a25.6 25.6 0 0 0-25.6-25.6h-614.4A25.6 25.6 0 0 0 153.6 409.6c0 183.5008 149.2992 332.8 332.8 332.8z m316.5184-230.4H819.2a25.6 25.6 0 0 1 25.6 25.6v51.2a25.6 25.6 0 0 1-25.6 25.6h-71.0144a331.9808 331.9808 0 0 0 54.7328-102.4z m-36.096-76.8c-12.9536 143.36-133.7344 256-280.4224 256a281.9584 281.9584 0 0 1-280.4736-256h560.896z" fill="#7F38B6" p-id="63189"></path><path d="M391.4752 638.8224a12.8 12.8 0 0 0 10.6496-23.2448 252.928 252.928 0 0 1-74.5984-51.2 208.4352 208.4352 0 0 1-46.848-69.9392 12.8 12.8 0 1 0-23.7568 9.5232 234.0352 234.0352 0 0 0 52.48 78.4896c23.7568 23.552 51.5584 42.7008 82.0736 56.3712zM524.8 332.8a12.8 12.8 0 0 0 6.5024-1.792c22.4256-13.2096 34.7648-29.44 41.1648-54.0672 3.9936-15.1552 4.352-30.3104 4.6592-45.0048 0.3072-12.4928 0.5632-24.32 2.9184-35.7376 5.12-24.4224 13.6704-38.656 26.1632-43.4688a12.8 12.8 0 1 0-9.216-23.8592c-21.248 8.192-34.9696 28.4672-41.984 62.1056a222.0032 222.0032 0 0 0-3.4816 40.3456c-0.3072 13.824-0.6144 26.88-3.84 39.168-4.608 17.92-12.9024 28.7232-29.3888 38.4512a12.8 12.8 0 0 0 6.5024 23.8592z m-128 0a12.8 12.8 0 0 0 6.5024-1.792c22.4768-13.2096 34.7648-29.44 41.1648-54.0672 3.9936-15.1552 4.352-30.3104 4.608-45.0048 0.3584-12.4928 0.6144-24.32 2.9696-35.7376 5.12-24.4224 13.6704-38.656 26.1632-43.4688a12.8 12.8 0 1 0-9.216-23.8592c-21.248 8.192-34.9696 28.4672-41.984 62.1056a222.0032 222.0032 0 0 0-3.4816 40.3456c-0.3072 13.824-0.6144 26.88-3.84 39.168-4.608 17.92-12.8512 28.7232-29.3888 38.4512a12.8 12.8 0 0 0 6.5024 23.8592z" fill="#7F38B6" p-id="63190"></path></svg>