<?xml version="1.0" standalone="no"?><!DOCTYPE svg PUBLIC "-//W3C//DTD SVG 1.1//EN" "http://www.w3.org/Graphics/SVG/1.1/DTD/svg11.dtd"><svg t="1731810042733" class="icon" viewBox="0 0 1024 1024" version="1.1" xmlns="http://www.w3.org/2000/svg" p-id="10741" xmlns:xlink="http://www.w3.org/1999/xlink" width="256" height="256"><path d="M243.6 226h503v579.8h-503z" fill="#EE3E2B" p-id="10742"></path><path d="M746.6 815.8h-503c-5.5 0-9.9-4.4-9.9-9.9V226c0-5.5 4.4-9.9 9.9-9.9h503c5.5 0 9.9 4.4 9.9 9.9v579.8c0 5.5-4.4 10-9.9 10zM253.5 796h483.2V236H253.5v560z" fill="#7F0518" p-id="10743"></path><path d="M650.3 815.8c-31.9 0-57.9-28.8-57.9-64.1V280.2c0-35.3 26-64.1 57.9-64.1h206.4c31.9 0 57.9 28.8 57.9 64.1v471.4c0 35.4-26 64.1-57.9 64.1H650.3z" fill="#FF6A48" p-id="10744"></path><path d="M856.7 226c26.5 0 48 24.3 48 54.2v471.4c0 29.9-21.5 54.2-48 54.2H650.3c-26.5 0-48-24.3-48-54.2V280.2c0-29.9 21.5-54.2 48-54.2h206.4m0-19.8H650.3c-37.4 0-67.8 33.2-67.8 74v471.4c0 40.8 30.4 74 67.8 74h206.4c37.4 0 67.8-33.2 67.8-74V280.2c0-40.8-30.4-74-67.8-74z" fill="#7F0518" p-id="10745"></path><path d="M602.5 294.7h302v21.7h-302zM602.5 277.7h302c-0.2-7.8-1.9-15.1-4.8-21.7H607.3c-2.9 6.7-4.6 14-4.8 21.7zM602.5 715.5h302v21.7h-302zM602.5 754.1h302c-0.2 7.8-1.9 15.1-4.8 21.7H607.3c-2.9-6.6-4.6-13.9-4.8-21.7z" fill="#FFC831" p-id="10746"></path><path d="M689.1 182.5h128.8V215H689.1z" fill="#FF6A48" p-id="10747"></path><path d="M817.9 224.9H689.1c-5.5 0-9.9-4.4-9.9-9.9v-32.5c0-5.5 4.4-9.9 9.9-9.9h128.8c5.5 0 9.9 4.4 9.9 9.9V215c0 5.5-4.4 9.9-9.9 9.9zM699 205.1h109v-12.7H699v12.7z" fill="#7F0518" p-id="10748"></path><path d="M852.1 164.5c0 10-8.7 18.1-19.4 18.1H674.3c-10.7 0-19.4-8.1-19.4-18.1 0-10 8.7-18.1 19.4-18.1h158.4c10.7 0 19.4 8.1 19.4 18.1z" fill="#FF6A48" p-id="10749"></path><path d="M832.7 192.4H674.3c-16.2 0-29.3-12.5-29.3-28s13.2-28 29.3-28h158.4c16.2 0 29.3 12.5 29.3 28s-13.1 28-29.3 28z m-158.4-36.1c-5.2 0-9.5 3.7-9.5 8.2s4.3 8.2 9.5 8.2h158.4c5.2 0 9.5-3.7 9.5-8.2s-4.3-8.2-9.5-8.2H674.3z" fill="#7F0518" p-id="10750"></path><path d="M689.1 816.9h128.8v32.5H689.1z" fill="#FF6A48" p-id="10751"></path><path d="M817.9 859.3H689.1c-5.5 0-9.9-4.4-9.9-9.9v-32.5c0-5.5 4.4-9.9 9.9-9.9h128.8c5.5 0 9.9 4.4 9.9 9.9v32.5c0 5.4-4.4 9.9-9.9 9.9zM699 839.5h109v-12.7H699v12.7z" fill="#7F0518" p-id="10752"></path><path d="M852.1 867.4c0-10-8.7-18.1-19.4-18.1H674.3c-10.7 0-19.4 8.1-19.4 18.1 0 10 8.7 18.1 19.4 18.1h158.4c10.7 0 19.4-8.1 19.4-18.1z" fill="#FF6A48" p-id="10753"></path><path d="M832.7 895.4H674.3c-16.2 0-29.3-12.5-29.3-28 0-15.4 13.2-28 29.3-28h158.4c16.2 0 29.3 12.5 29.3 28s-13.1 28-29.3 28z m-158.4-36.1c-5.2 0-9.5 3.7-9.5 8.2 0 4.5 4.3 8.2 9.5 8.2h158.4c5.2 0 9.5-3.7 9.5-8.2 0-4.5-4.3-8.2-9.5-8.2H674.3z" fill="#7F0518" p-id="10754"></path><path d="M160.3 815.8c-31.9 0-57.9-28.8-57.9-64.1V280.2c0-35.3 26-64.1 57.9-64.1h206.4c31.9 0 57.9 28.8 57.9 64.1v471.4c0 35.4-26 64.1-57.9 64.1H160.3z" fill="#FF6A48" p-id="10755"></path><path d="M366.7 226c26.5 0 48 24.3 48 54.2v471.4c0 29.9-21.5 54.2-48 54.2H160.3c-26.5 0-48-24.3-48-54.2V280.2c0-29.9 21.5-54.2 48-54.2h206.4m0-19.8H160.3c-37.4 0-67.8 33.2-67.8 74v471.4c0 40.8 30.4 74 67.8 74h206.4c37.4 0 67.8-33.2 67.8-74V280.2c0-40.8-30.5-74-67.8-74z" fill="#7F0518" p-id="10756"></path><path d="M112.5 294.7h302v21.7h-302zM112.5 277.7h302c-0.2-7.8-1.9-15.1-4.8-21.7H117.2c-2.8 6.7-4.5 14-4.7 21.7zM112.5 715.5h302v21.7h-302zM112.5 754.1h302c-0.2 7.8-1.9 15.1-4.8 21.7H117.2c-2.8-6.6-4.5-13.9-4.7-21.7z" fill="#FFC831" p-id="10757"></path><path d="M199.1 182.5h128.8V215H199.1z" fill="#FF6A48" p-id="10758"></path><path d="M327.9 224.9H199.1c-5.5 0-9.9-4.4-9.9-9.9v-32.5c0-5.5 4.4-9.9 9.9-9.9h128.8c5.5 0 9.9 4.4 9.9 9.9V215c0 5.5-4.5 9.9-9.9 9.9zM209 205.1h109v-12.7H209v12.7z" fill="#7F0518" p-id="10759"></path><path d="M362.1 164.5c0 10-8.7 18.1-19.4 18.1H184.3c-10.7 0-19.4-8.1-19.4-18.1 0-10 8.7-18.1 19.4-18.1h158.4c10.7 0 19.4 8.1 19.4 18.1z" fill="#FF6A48" p-id="10760"></path><path d="M342.6 192.4H184.3c-16.2 0-29.3-12.5-29.3-28s13.2-28 29.3-28h158.4c16.2 0 29.3 12.5 29.3 28s-13.2 28-29.4 28z m-158.3-36.1c-5.2 0-9.5 3.7-9.5 8.2s4.3 8.2 9.5 8.2h158.4c5.2 0 9.5-3.7 9.5-8.2s-4.3-8.2-9.5-8.2H184.3z" fill="#7F0518" p-id="10761"></path><path d="M199.1 816.9h128.8v32.5H199.1z" fill="#FF6A48" p-id="10762"></path><path d="M327.9 859.3H199.1c-5.5 0-9.9-4.4-9.9-9.9v-32.5c0-5.5 4.4-9.9 9.9-9.9h128.8c5.5 0 9.9 4.4 9.9 9.9v32.5c0 5.4-4.5 9.9-9.9 9.9zM209 839.5h109v-12.7H209v12.7z" fill="#7F0518" p-id="10763"></path><path d="M362.1 867.4c0-10-8.7-18.1-19.4-18.1H184.3c-10.7 0-19.4 8.1-19.4 18.1 0 10 8.7 18.1 19.4 18.1h158.4c10.7 0 19.4-8.1 19.4-18.1z" fill="#FF6A48" p-id="10764"></path><path d="M342.6 895.4H184.3c-16.2 0-29.3-12.5-29.3-28 0-15.4 13.2-28 29.3-28h158.4c16.2 0 29.3 12.5 29.3 28s-13.2 28-29.4 28z m-158.3-36.1c-5.2 0-9.5 3.7-9.5 8.2 0 4.5 4.3 8.2 9.5 8.2h158.4c5.2 0 9.5-3.7 9.5-8.2 0-4.5-4.3-8.2-9.5-8.2H184.3z" fill="#7F0518" p-id="10765"></path></svg>