<?xml version="1.0" standalone="no"?><!DOCTYPE svg PUBLIC "-//W3C//DTD SVG 1.1//EN" "http://www.w3.org/Graphics/SVG/1.1/DTD/svg11.dtd"><svg t="1731684628646" class="icon" viewBox="0 0 1024 1024" version="1.1" xmlns="http://www.w3.org/2000/svg" p-id="82092" xmlns:xlink="http://www.w3.org/1999/xlink" width="256" height="256"><path d="M881.5 190.8h-31.3v-14.9h5.3c17.5 0 31.7-13.5 31.7-30.3s-14.2-30.3-31.7-30.3H684.1c-17.4 0-31.7 13.5-31.7 30.3s14.2 30.3 31.7 30.3h5.3v14.9h-31.3c-13.3 0-25.7 3.9-36.5 10.7H387.9c-10.8-6.8-23.2-10.7-36.4-10.7h-31.3v-14.9h5.2c17.5 0 31.8-13.5 31.8-30.3s-14.2-30.3-31.7-30.3H154.1c-17.4 0-31.7 13.5-31.7 30.3s14.2 30.3 31.7 30.3h5.3v14.9h-31.3c-40.5 0-73.3 35.9-73.3 80v509.9c0 44.1 32.9 80 73.3 80h31.3v14.9h-5.3c-17.4 0-31.7 13.6-31.7 30.3 0 16.8 14.2 30.3 31.7 30.3h171.2c17.5 0 31.8-13.5 31.8-30.3s-14.2-30.3-31.7-30.3h-5.3v-14.9h31.3c13.2 0 25.6-3.9 36.3-10.6h234.1c10.7 6.7 23.1 10.6 36.3 10.6h31.3v14.9h-5.3c-17.4 0-31.7 13.6-31.7 30.3 0 16.8 14.2 30.3 31.7 30.3h171.3c17.5 0 31.7-13.5 31.7-30.3s-14.2-30.3-31.7-30.3h-5.3v-14.9h31.3c40.5 0 73.3-35.9 73.3-80V270.8c0.1-44.1-32.8-80-73.2-80z m-207.6-45.1c0-4.9 4.7-8.9 10.3-8.9h171.3c5.6 0 10.3 4 10.3 8.9s-4.7 8.9-10.3 8.9h-14.9c-0.4 0-0.7-0.1-1.1-0.1H700.2c-0.4 0-0.7 0.1-1.1 0.1h-14.9c-5.7 0-10.3-4-10.3-8.9z m154.9 30.2v13.7H710.9v-13.7h117.9z m-685-30.2c0-4.9 4.7-8.9 10.3-8.9h171.3c5.6 0 10.3 4 10.3 8.9s-4.7 8.9-10.3 8.9h-14.9c-0.4 0-0.7-0.1-1.1-0.1H170.1c-0.4 0-0.7 0.1-1.1 0.1h-14.9c-5.6 0-10.3-4-10.3-8.9z m154.9 30.2v13.7H180.8v-13.7h117.9z m37 730.2c0 4.9-4.7 8.9-10.3 8.9H154.1c-5.6 0-10.3-4-10.3-8.9s4.7-8.9 10.3-8.9h171.3c5.7 0.1 10.3 4.1 10.3 8.9z m-154.9-30.4v-13.6h117.9v13.6H180.8z m685 30.4c0 4.9-4.7 8.9-10.3 8.9H684.1c-5.6 0-10.3-4-10.3-8.9s4.7-8.9 10.3-8.9h171.3c5.7 0.1 10.4 4.1 10.4 8.9z m-154.9-30.4v-13.6h117.9v13.6H710.9z m170.6-36.3H658.2c-20.3 0-37.9-13.2-46.4-32.5h316.1c-8.6 19.3-26.1 32.5-46.4 32.5zM128.1 212.2h223.3c20.3 0 37.9 13.2 46.4 32.5H81.7c8.6-19.2 26.1-32.5 46.4-32.5z m-51.9 58.6c0-4.9 0.6-9.5 1.6-14-0.8 3.7-1.2 7.5-1.4 11.3h326.7c-0.1-3.9-0.6-7.7-1.3-11.3 1 4.5 1.6 9.2 1.6 14v509.9c0 4.8-0.6 9.5-1.6 14 0.8-3.6 1.2-7.4 1.3-11.3H76.4c0.1 3.8 0.6 7.5 1.3 11.1-1-4.4-1.5-9-1.5-13.8V270.8z m2.7-18.5c-0.2 0.9-0.5 1.7-0.7 2.6 0.2-0.9 0.5-1.7 0.7-2.6z m320-5.1c0.2 0.5 0.4 0.9 0.5 1.4-0.1-0.4-0.3-0.9-0.5-1.4z m1.6 4.8c0.3 1 0.6 1.9 0.8 2.9-0.2-1-0.5-2-0.8-2.9z m-1.6 552.4c0.2-0.5 0.4-0.9 0.5-1.4-0.1 0.5-0.3 0.9-0.5 1.4z m1.6-4.8c0.3-1 0.6-1.9 0.8-2.9-0.2 1-0.5 2-0.8 2.9z m-322.2-2.4c0.1 0.6 0.3 1.2 0.5 1.8-0.2-0.6-0.3-1.2-0.5-1.8z m319.5 9.7c-8.5 19.2-26.1 32.5-46.4 32.5H128.1c-20.3 0-37.9-13.2-46.4-32.5h316.1z m27-26.1v-510c0-17.9-5.5-34.5-14.7-47.8h189.4c-9.2 13.4-14.7 29.9-14.7 47.8v509.9c0 18 5.6 34.6 14.8 48H409.9c9.3-13.3 14.9-29.9 14.9-47.9z m456.7-568.6c20.3 0 37.9 13.2 46.4 32.5H611.8c8.5-19.2 26.1-32.5 46.4-32.5h223.3z m51.9 568.6c0 4.8-0.6 9.5-1.6 14 0.8-3.6 1.2-7.4 1.3-11.3H606.5c0.1 3.9 0.6 7.7 1.3 11.3-1-4.5-1.6-9.2-1.6-14v-510c0-4.9 0.6-9.7 1.6-14.3-0.8 3.7-1.3 7.6-1.4 11.6h326.7c-0.1-3.9-0.6-7.7-1.3-11.3 1 4.5 1.6 9.2 1.6 14v510z m-4.4 23.6c0.2-0.5 0.4-0.9 0.5-1.4-0.2 0.5-0.4 0.9-0.5 1.4z m1.6-4.8c0.3-1 0.6-1.9 0.8-2.9-0.3 1-0.5 2-0.8 2.9z m-319.9 4.8c-0.2-0.5-0.4-0.9-0.5-1.4 0.1 0.5 0.3 0.9 0.5 1.4z m-1.6-4.8c-0.3-1-0.6-1.9-0.8-2.9 0.2 1 0.5 2 0.8 2.9z m1.7-552.6c-0.2 0.6-0.5 1.3-0.7 1.9 0.2-0.6 0.4-1.3 0.7-1.9z m-1.6 4.6c-0.4 1.2-0.7 2.5-1 3.7 0.3-1.2 0.6-2.5 1-3.7z m319.8-4.4c0.2 0.5 0.4 0.9 0.5 1.4-0.2-0.4-0.4-0.9-0.5-1.4z m1.6 4.8c0.3 1 0.6 1.9 0.8 2.9-0.3-1-0.5-2-0.8-2.9z" fill="#7e791e" p-id="82093"></path><path d="M606.5 741.7h326.7v23.5H606.5zM606.5 286.5h326.7V310H606.5zM76.4 741.7h326.7v23.5H76.4zM76.4 286.5h326.7V310H76.4z" fill="#7e791e" p-id="82094"></path></svg>