<?xml version="1.0" standalone="no"?><!DOCTYPE svg PUBLIC "-//W3C//DTD SVG 1.1//EN" "http://www.w3.org/Graphics/SVG/1.1/DTD/svg11.dtd"><svg t="1731683558628" class="icon" viewBox="0 0 1024 1024" version="1.1" xmlns="http://www.w3.org/2000/svg" p-id="38688" xmlns:xlink="http://www.w3.org/1999/xlink" width="256" height="256"><path d="M526.805718 287.184949h-0.310722a139.824968 139.824968 0 0 0-156.875847 115.860523l-2.679979 11.380198 67.038305 22.333155 2.679978-14.44858a74.262594 74.262594 0 0 1 84.205704-71.582616 57.833161 57.833161 0 0 1 60.513139 52.822766c3.379103 27.188188-13.128011 52.512044-50.49235 77.95242a119.239626 119.239626 0 0 0-57.405918 104.441483v32.820028h67.582068v-31.421778a65.057451 65.057451 0 0 1 34.451319-58.804167c54.376377-37.208978 80.477037-79.38951 77.680538-125.60943a118.540501 118.540501 0 0 0-126.386235-115.744002z m-59.503292 355.932225h77.680538v75.583164h-77.680538z" fill="#F1BE79" p-id="38689"></path><path d="M512.085256 76.787212a435.011013 435.011013 0 1 1-435.011013 435.011013 435.011013 435.011013 0 0 1 435.011013-435.011013m0-76.787212a511.992426 511.992426 0 1 0 511.953586 511.992426A512.691551 512.691551 0 0 0 512.085256 0z" fill="#F1BE79" p-id="38690"></path></svg>