<?xml version="1.0" standalone="no"?><!DOCTYPE svg PUBLIC "-//W3C//DTD SVG 1.1//EN" "http://www.w3.org/Graphics/SVG/1.1/DTD/svg11.dtd"><svg t="1731659352048" class="icon" viewBox="0 0 1024 1024" version="1.1" xmlns="http://www.w3.org/2000/svg" p-id="4180" width="256" height="256" xmlns:xlink="http://www.w3.org/1999/xlink"><path d="M512.013621 511.927945m-353.861095 218.719741a416 416 0 1 0 707.722191-437.439482 416 416 0 1 0-707.722191 437.439482Z" fill="#3F86FF" p-id="4181"></path><path d="M512 384a32 32 0 0 0-32 32v320a32 32 0 0 0 64 0v-320a32 32 0 0 0-32-32z" fill="#FFFFFF" opacity=".75" p-id="4182"></path><path d="M512 256a32 32 0 1 0 32 32 32 32 0 0 0-32-32z" fill="#FFFFFF" p-id="4183"></path></svg>