<?xml version="1.0" standalone="no"?><!DOCTYPE svg PUBLIC "-//W3C//DTD SVG 1.1//EN" "http://www.w3.org/Graphics/SVG/1.1/DTD/svg11.dtd"><svg t="1731813560957" class="icon" viewBox="0 0 1024 1024" version="1.1" xmlns="http://www.w3.org/2000/svg" p-id="61696" xmlns:xlink="http://www.w3.org/1999/xlink" width="256" height="256"><path d="M816.448 347.52C895.552 347.52 960 284.288 960 205.824 960 127.808 896 64 816.96 64a142.272 142.272 0 0 0-139.2 174.912l-352 193.408c-4.48-3.84-8.832-8.32-13.248-11.648l67.392-156.416c19.072-3.904 36.608-13.632 50.304-27.264a100.544 100.544 0 0 0 0.96-142.272A102.592 102.592 0 0 0 358.464 64c-27.392 0-52.736 10.688-72.32 29.696a100.224 100.224 0 0 0-29.76 71.168c0 26.816 10.24 52.096 29.312 71.616 8.32 8.32 16.64 14.08 25.408 19.008l-60.608 136.384a146.176 146.176 0 0 0-32.64-3.392A153.088 153.088 0 0 0 64 540.992a153.088 153.088 0 0 0 153.792 152.512c51.776 0 99.648-25.344 128-67.2l198.656 107.136a182.144 182.144 0 0 0-4.352 39.936c0 102.848 84.48 186.624 188.48 186.624 104 0 188.48-83.84 188.48-186.624 0-102.784-84.48-186.56-188.48-186.56-64 0-123.072 32.128-157.76 84.288l-200.64-108.16a151.872 151.872 0 0 0-7.36-72.64l346.688-190.464c26.368 29.696 65.92 47.744 106.88 47.744z" fill="#c67d9f" p-id="61697"></path></svg>