<?xml version="1.0" standalone="no"?><!DOCTYPE svg PUBLIC "-//W3C//DTD SVG 1.1//EN" "http://www.w3.org/Graphics/SVG/1.1/DTD/svg11.dtd"><svg t="1731684189542" class="icon" viewBox="0 0 1024 1024" version="1.1" xmlns="http://www.w3.org/2000/svg" p-id="76861" xmlns:xlink="http://www.w3.org/1999/xlink" width="256" height="256"><path d="M413.44 892.928l-20.096-4.608c-14.08-3.072-27.776-6.272-41.344-9.6q-99.712-24.576-199.168-49.92a36.992 36.992 0 0 1-20.608-14.208Q108.8 780.8 86.016 748.032c-12.8-18.688-25.6-37.504-39.168-56.192l-5.248-7.424v-9.216a35.2 35.2 0 0 1 2.048-11.392l28.928-87.168 48.896-146.944a6.016 6.016 0 0 0 0-1.152l-0.896-0.896C96.384 403.456 71.68 378.24 51.2 356.736a41.472 41.472 0 0 1-10.496-19.328c-5.12-22.144-9.856-44.544-14.72-66.816l-2.176-10.24a57.472 57.472 0 0 1-1.152-12.8c0-8.064 0.768-16 1.28-23.68v-11.648l3.968-7.424a51.2 51.2 0 0 0 3.328-6.656c2.048-8.064 3.712-16.896 5.248-26.88l3.072-21.376 21.376-2.944 36.096-5.12 6.656-1.024 52.48-7.424a39.168 39.168 0 0 1 20.352 2.688Q239.104 166.4 300.8 195.84c5.248 2.56 10.368 5.376 15.488 8.064l1.28 0.64c6.016 3.328 11.904 6.528 18.048 9.344a6.912 6.912 0 0 0 3.2 0l78.464-19.84 78.72-19.84a55.68 55.68 0 0 1 25.6 0c25.6 5.504 50.432 11.264 75.648 17.024l12.8 2.816 75.136 17.024h2.048c10.112-4.992 20.608-10.496 31.104-16 14.208-7.424 28.416-14.72 42.752-21.76 34.56-16.512 62.848-29.312 89.6-40.064a50.048 50.048 0 0 1 28.032-0.768l4.736 0.768 37.504 5.376h2.944l40.192 5.76 21.12 2.816 3.456 20.992c1.408 8.704 3.072 18.688 5.376 27.904v1.536a46.08 46.08 0 0 1 0 4.608l7.296 6.144v36.352a66.688 66.688 0 0 1-0.896 12.8c-4.864 22.912-10.496 49.408-16.64 75.392a45.696 45.696 0 0 1-11.52 21.504c-20.736 21.504-43.008 44.16-70.144 71.168l43.264 130.944 5.632 17.024q14.592 44.544 29.44 89.6a31.616 31.616 0 0 1-4.224 29.568L947.2 735.872l-6.656 9.6Q916.48 780.8 892.544 815.104A40.704 40.704 0 0 1 870.4 830.208c-75.136 18.944-153.6 38.4-234.624 58.112a100.608 100.608 0 0 1-18.944 2.304h-9.6z m-238.72-117.888q95.616 24.192 191.104 47.744c12.8 3.328 26.496 6.272 39.936 9.344l13.824 3.072 185.984-1.536h7.808a80.256 80.256 0 0 0 8.832-0.768c77.952-19.072 154.368-38.4 227.2-56.32 14.464-20.864 28.928-41.984 43.392-63.104l6.528-9.6 22.912-33.408-25.6-77.696-5.504-17.024c-14.592-44.032-29.056-88.192-43.776-132.096a52.992 52.992 0 0 1 13.568-56.704c25.6-25.6 47.744-48 67.84-68.736 5.632-24.192 10.88-48.64 15.36-70.016v-15.36a56.832 56.832 0 0 1-7.168-23.936c-0.768-3.072-1.408-6.144-2.048-9.216l-19.968-2.944h-2.432l-37.504-5.376-6.784-1.152h-1.92c-23.552 9.856-49.28 21.504-80.256 36.352-13.824 6.656-27.392 13.696-41.088 20.864-10.88 5.632-21.632 11.264-32.64 16.768a60.8 60.8 0 0 1-39.68 4.352l-75.392-17.024-12.8-2.816L509.312 230.4c-25.6 6.272-51.2 12.8-77.824 19.584s-52.48 13.44-78.848 19.968a64 64 0 0 1-41.216-4.096c-7.168-3.2-14.208-7.04-21.248-10.88h-1.152c-4.352-2.432-8.832-4.864-12.8-7.04Q217.6 219.392 158.336 192l-46.464 6.528-6.784 1.024-15.488 1.92c-0.768 3.84-1.664 7.552-2.56 11.136a70.144 70.144 0 0 1-5.888 15.232c0 7.04-0.896 14.336-1.152 21.632l2.048 8.96c4.48 20.608 8.832 41.216 13.568 61.696 19.968 20.48 42.88 44.032 65.792 66.432a56.96 56.96 0 0 1 14.72 61.44q-24.576 73.344-48.896 146.816l-25.6 75.52 31.232 44.928q20.736 29.952 41.856 59.776z m-8.32-2.048z m-44.8-345.6z m-25.6-103.424z m832-4.096z m-835.84-3.328z m839.04-1.408z m-767.104-124.16z m698.624-2.304z m9.088-1.92z" fill="#515151" p-id="76862"></path><path d="M428.672 454.016a46.08 46.08 0 0 0-37.504 27.392 26.496 26.496 0 0 1 22.144 25.6 26.752 26.752 0 0 1-26.88 26.752 28.8 28.8 0 0 1-9.984-1.92c0 4.992-0.896 10.112-0.896 15.36 0 51.2 23.808 93.312 53.12 93.312s53.12-41.728 53.12-93.312-23.808-93.184-53.12-93.184zM755.2 454.016a46.08 46.08 0 0 0-37.504 27.392 26.496 26.496 0 0 1 22.144 25.6 26.752 26.752 0 0 1-26.88 26.752 28.288 28.288 0 0 1-9.984-1.92c0 4.992-0.896 10.112-0.896 15.36 0 51.2 23.808 93.312 53.12 93.312s53.12-41.728 53.12-93.312-23.808-93.184-53.12-93.184z" fill="#515151" p-id="76863"></path></svg>